<svg width="141" height="26" viewBox="0 0 141 26" fill="none" xmlns="http://www.w3.org/2000/svg">
<path d="M6.38 10.412H0.00800003V5.696C4.04 5.444 6.74 3.86 8.18 0.835998H14.876V26H6.38V10.412ZM55.7703 12.68V13.652C55.7703 14.66 55.6623 15.632 55.4463 16.568C55.2663 17.504 54.7623 18.584 54.0063 19.736C53.2503 20.888 52.2423 21.896 51.0183 22.76C49.7943 23.588 48.0663 24.308 45.7983 24.884C43.5663 25.496 40.9383 25.784 37.9503 25.784H36.4023C33.4143 25.784 30.7863 25.496 28.5543 24.884C26.3223 24.308 24.5943 23.588 23.3703 22.76C22.1103 21.932 21.1383 20.924 20.3823 19.736C19.6263 18.584 19.1223 17.504 18.9063 16.568C18.6903 15.632 18.5823 14.66 18.5823 13.652V12.68C18.5823 11.672 18.6903 10.7 18.9063 9.764C19.1223 8.828 19.6263 7.784 20.3823 6.632C21.1383 5.48 22.1103 4.472 23.3703 3.644C24.5943 2.816 26.3223 2.132 28.5543 1.556C30.7863 0.979998 33.4143 0.692 36.4023 0.692H37.9503C40.9383 0.692 43.5663 0.979998 45.7983 1.556C48.0663 2.132 49.7943 2.816 51.0183 3.644C52.2423 4.472 53.2503 5.48 54.0063 6.632C54.7623 7.784 55.2663 8.828 55.4463 9.764C55.6623 10.7 55.7703 11.672 55.7703 12.68ZM47.1303 12.896C47.1303 12.14 46.9863 11.42 46.6623 10.736C46.3743 10.052 45.8703 9.404 45.1863 8.72C44.5023 8.072 43.4943 7.568 42.1263 7.172C40.7223 6.776 39.1023 6.596 37.1583 6.596C35.5743 6.596 34.2063 6.704 32.9823 6.992C31.7583 7.28 30.8223 7.604 30.1023 8.036C29.3823 8.432 28.8063 8.936 28.3743 9.512C27.9063 10.088 27.6183 10.628 27.4743 11.168C27.2943 11.708 27.2223 12.284 27.2223 12.896V13.292C27.2223 14.048 27.3663 14.804 27.6903 15.488C27.9783 16.208 28.4463 16.892 29.1303 17.576C29.8503 18.26 30.8583 18.8 32.2263 19.232C33.5943 19.628 35.2503 19.844 37.1583 19.844C39.1023 19.844 40.7223 19.628 42.1263 19.232C43.4943 18.836 44.5023 18.296 45.1863 17.612C45.8703 16.964 46.3743 16.28 46.6623 15.56C46.9863 14.876 47.1303 14.156 47.1303 13.364V12.896ZM96.0242 12.68V13.652C96.0242 14.66 95.9162 15.632 95.7002 16.568C95.5202 17.504 95.0162 18.584 94.2602 19.736C93.5042 20.888 92.4962 21.896 91.2722 22.76C90.0482 23.588 88.3202 24.308 86.0522 24.884C83.8202 25.496 81.1922 25.784 78.2042 25.784H76.6562C73.6682 25.784 71.0402 25.496 68.8082 24.884C66.5762 24.308 64.8482 23.588 63.6242 22.76C62.3642 21.932 61.3922 20.924 60.6362 19.736C59.8802 18.584 59.3762 17.504 59.1602 16.568C58.9442 15.632 58.8362 14.66 58.8362 13.652V12.68C58.8362 11.672 58.9442 10.7 59.1602 9.764C59.3762 8.828 59.8802 7.784 60.6362 6.632C61.3922 5.48 62.3642 4.472 63.6242 3.644C64.8482 2.816 66.5762 2.132 68.8082 1.556C71.0402 0.979998 73.6682 0.692 76.6562 0.692H78.2042C81.1922 0.692 83.8202 0.979998 86.0522 1.556C88.3202 2.132 90.0482 2.816 91.2722 3.644C92.4962 4.472 93.5042 5.48 94.2602 6.632C95.0162 7.784 95.5202 8.828 95.7002 9.764C95.9162 10.7 96.0242 11.672 96.0242 12.68ZM87.3842 12.896C87.3842 12.14 87.2402 11.42 86.9162 10.736C86.6282 10.052 86.1242 9.404 85.4402 8.72C84.7562 8.072 83.7482 7.568 82.3802 7.172C80.9762 6.776 79.3562 6.596 77.4122 6.596C75.8282 6.596 74.4602 6.704 73.2362 6.992C72.0122 7.28 71.0762 7.604 70.3562 8.036C69.6362 8.432 69.0602 8.936 68.6282 9.512C68.1602 10.088 67.8722 10.628 67.7282 11.168C67.5482 11.708 67.4762 12.284 67.4762 12.896V13.292C67.4762 14.048 67.6202 14.804 67.9442 15.488C68.2322 16.208 68.7002 16.892 69.3842 17.576C70.1042 18.26 71.1122 18.8 72.4802 19.232C73.8482 19.628 75.5042 19.844 77.4122 19.844C79.3562 19.844 80.9762 19.628 82.3802 19.232C83.7482 18.836 84.7562 18.296 85.4402 17.612C86.1242 16.964 86.6282 16.28 86.9162 15.56C87.2402 14.876 87.3842 14.156 87.3842 13.364V12.896ZM107.442 15.164C106.038 15.164 104.778 15.02 103.662 14.768C102.582 14.48 101.718 14.12 101.106 13.688C100.494 13.292 99.9901 12.788 99.6301 12.212C99.2341 11.672 98.9821 11.132 98.8741 10.664C98.7661 10.196 98.7301 9.728 98.7301 9.26V8.756C98.7301 8.252 98.7661 7.784 98.8741 7.316C98.9821 6.848 99.2341 6.344 99.6301 5.804C99.9901 5.228 100.494 4.76 101.106 4.328C101.718 3.932 102.582 3.608 103.662 3.32C104.778 3.032 106.038 2.924 107.442 2.924H108.198C109.602 2.924 110.862 3.032 111.942 3.32C113.022 3.608 113.886 3.932 114.498 4.328C115.11 4.76 115.578 5.228 115.974 5.804C116.37 6.344 116.622 6.848 116.73 7.316C116.838 7.784 116.874 8.252 116.874 8.756V9.26C116.874 9.872 116.766 10.484 116.55 11.06C116.334 11.672 115.974 12.284 115.398 12.968C114.822 13.616 113.922 14.156 112.698 14.552C111.474 14.984 109.962 15.164 108.198 15.164H107.442ZM107.802 11.672C109.206 11.672 110.25 11.42 110.898 10.916C111.582 10.448 111.906 9.836 111.906 9.116V8.9C111.906 7.244 110.538 6.416 107.802 6.416C105.066 6.416 103.734 7.244 103.734 8.9V9.08C103.734 9.8 104.058 10.448 104.706 10.916C105.354 11.42 106.398 11.672 107.802 11.672ZM129.006 3.176H135.126L110.286 24.308H104.202L129.006 3.176ZM131.958 24.524H131.166C129.726 24.524 128.502 24.38 127.422 24.092C126.306 23.804 125.478 23.444 124.866 23.048C124.254 22.616 123.75 22.112 123.39 21.536C122.994 20.96 122.742 20.456 122.634 19.988C122.49 19.52 122.418 19.016 122.418 18.548V18.08C122.418 17.612 122.49 17.144 122.634 16.64C122.742 16.172 122.994 15.668 123.39 15.128C123.75 14.588 124.254 14.084 124.866 13.688C125.478 13.256 126.306 12.896 127.422 12.644C128.502 12.356 129.726 12.212 131.166 12.212H131.958C133.686 12.212 135.198 12.428 136.422 12.824C137.646 13.22 138.546 13.724 139.122 14.372C139.662 15.02 140.094 15.632 140.31 16.244C140.526 16.856 140.634 17.468 140.634 18.08V18.548C140.634 19.016 140.598 19.52 140.49 19.988C140.346 20.456 140.13 20.96 139.734 21.536C139.338 22.112 138.87 22.616 138.258 23.048C137.646 23.444 136.818 23.804 135.702 24.092C134.622 24.38 133.362 24.524 131.958 24.524ZM131.526 20.996C132.966 20.996 134.01 20.744 134.658 20.24C135.342 19.736 135.666 19.16 135.666 18.44V18.224C135.666 17.504 135.342 16.892 134.694 16.424C134.046 15.956 133.002 15.704 131.526 15.704C130.086 15.704 129.042 15.956 128.394 16.424C127.782 16.892 127.458 17.504 127.458 18.224V18.404C127.458 19.124 127.782 19.736 128.43 20.24C129.078 20.744 130.122 20.996 131.526 20.996Z" fill="black"/>
</svg>
