<svg width="94" height="27" viewBox="0 0 94 27" fill="none" xmlns="http://www.w3.org/2000/svg">
<path d="M33.524 26.036H0.62V23.228C0.62 22.616 0.62 22.04 0.692 21.536C0.728 21.032 0.836 20.456 1.052 19.736C1.232 19.052 1.52 18.44 1.844 17.864C2.204 17.324 2.708 16.712 3.392 16.064C4.04 15.416 4.832 14.84 5.732 14.336C6.632 13.832 7.784 13.328 9.152 12.86C10.52 12.392 12.104 11.996 13.832 11.636L20.132 10.448C21.824 10.16 22.904 9.872 23.408 9.548C23.876 9.26 24.128 8.864 24.128 8.396C24.128 8 23.984 7.712 23.732 7.46C23.444 7.208 22.76 6.992 21.716 6.812C20.672 6.632 19.232 6.524 17.36 6.524C15.776 6.524 14.444 6.632 13.364 6.884C12.32 7.1 11.528 7.424 11.096 7.856C10.628 8.252 10.304 8.612 10.16 8.936C10.016 9.26 9.908 9.62 9.872 10.016H1.088V9.764C1.088 9.044 1.16 8.36 1.304 7.712C1.448 7.1 1.808 6.308 2.42 5.444C3.032 4.544 3.86 3.788 4.904 3.14C5.912 2.528 7.424 1.988 9.404 1.52C11.348 1.052 13.688 0.835998 16.352 0.835998H17.792C20.24 0.835998 22.4 0.979998 24.236 1.268C26.072 1.556 27.548 1.916 28.664 2.384C29.744 2.852 30.644 3.392 31.328 4.076C31.976 4.76 32.444 5.444 32.696 6.164C32.948 6.848 33.056 7.604 33.056 8.468V8.54C33.056 9.548 32.912 10.412 32.66 11.096C32.408 11.816 31.904 12.464 31.184 13.112C30.428 13.76 29.384 14.3 27.98 14.768C26.612 15.2 24.812 15.596 22.652 15.956L15.236 17.072C10.52 17.864 8.144 18.908 8.144 20.168H25.208V16.964H33.524V26.036ZM73.6297 12.68V13.652C73.6297 14.66 73.5217 15.632 73.3057 16.568C73.1257 17.504 72.6217 18.584 71.8657 19.736C71.1097 20.888 70.1017 21.896 68.8777 22.76C67.6537 23.588 65.9257 24.308 63.6577 24.884C61.4257 25.496 58.7977 25.784 55.8097 25.784H54.2617C51.2737 25.784 48.6457 25.496 46.4137 24.884C44.1817 24.308 42.4537 23.588 41.2297 22.76C39.9697 21.932 38.9977 20.924 38.2417 19.736C37.4857 18.584 36.9817 17.504 36.7657 16.568C36.5497 15.632 36.4417 14.66 36.4417 13.652V12.68C36.4417 11.672 36.5497 10.7 36.7657 9.764C36.9817 8.828 37.4857 7.784 38.2417 6.632C38.9977 5.48 39.9697 4.472 41.2297 3.644C42.4537 2.816 44.1817 2.132 46.4137 1.556C48.6457 0.979998 51.2737 0.692 54.2617 0.692H55.8097C58.7977 0.692 61.4257 0.979998 63.6577 1.556C65.9257 2.132 67.6537 2.816 68.8777 3.644C70.1017 4.472 71.1097 5.48 71.8657 6.632C72.6217 7.784 73.1257 8.828 73.3057 9.764C73.5217 10.7 73.6297 11.672 73.6297 12.68ZM64.9897 12.896C64.9897 12.14 64.8457 11.42 64.5217 10.736C64.2337 10.052 63.7297 9.404 63.0457 8.72C62.3617 8.072 61.3537 7.568 59.9857 7.172C58.5817 6.776 56.9617 6.596 55.0177 6.596C53.4337 6.596 52.0657 6.704 50.8417 6.992C49.6177 7.28 48.6817 7.604 47.9617 8.036C47.2417 8.432 46.6657 8.936 46.2337 9.512C45.7657 10.088 45.4777 10.628 45.3337 11.168C45.1537 11.708 45.0817 12.284 45.0817 12.896V13.292C45.0817 14.048 45.2257 14.804 45.5497 15.488C45.8377 16.208 46.3057 16.892 46.9897 17.576C47.7097 18.26 48.7177 18.8 50.0857 19.232C51.4537 19.628 53.1097 19.844 55.0177 19.844C56.9617 19.844 58.5817 19.628 59.9857 19.232C61.3537 18.836 62.3617 18.296 63.0457 17.612C63.7297 16.964 64.2337 16.28 64.5217 15.56C64.8457 14.876 64.9897 14.156 64.9897 13.364V12.896ZM87.3516 15.956V20.96H82.1316V15.956H76.2996V12.032H82.1316V7.028H87.3516V12.032H93.2196V15.956H87.3516Z" fill="black"/>
</svg>
