<svg width="93" height="27" viewBox="0 0 93 27" fill="none" xmlns="http://www.w3.org/2000/svg">
<path d="M17.792 26.036H16.1C14.228 26.036 12.5 25.928 10.988 25.712C9.44 25.496 8.144 25.208 7.1 24.884C6.092 24.524 5.156 24.128 4.364 23.66C3.572 23.156 2.96 22.688 2.528 22.22C2.096 21.752 1.736 21.248 1.448 20.708C1.16 20.168 0.98 19.7 0.908 19.304C0.836 18.872 0.8 18.476 0.8 18.08V17.828H9.692C10.196 19.484 12.608 20.312 16.928 20.312C19.7 20.312 21.536 20.024 22.472 19.448C23.408 18.872 23.876 18.152 23.876 17.288V17.072C23.876 16.172 23.408 15.452 22.472 14.912C21.536 14.336 19.7 14.048 16.928 14.048C15.704 14.048 14.624 14.12 13.688 14.264C12.752 14.372 12.032 14.516 11.564 14.696C11.06 14.84 10.664 15.02 10.34 15.236C10.016 15.452 9.8 15.632 9.728 15.74C9.656 15.848 9.62 15.956 9.584 16.028H1.376V0.835998H30.824V6.596H9.656V11.024C11.78 9.476 14.984 8.72 19.268 8.72H19.592C22.184 8.72 24.38 8.936 26.144 9.368C27.908 9.764 29.276 10.412 30.212 11.204C31.148 11.996 31.796 12.896 32.156 13.832C32.552 14.732 32.732 15.812 32.732 17.036V17.252C32.732 18.116 32.588 18.944 32.372 19.736C32.12 20.492 31.652 21.248 31.004 22.076C30.356 22.868 29.456 23.552 28.376 24.092C27.332 24.668 25.856 25.136 24.056 25.496C22.256 25.856 20.168 26.036 17.792 26.036ZM73.032 12.68V13.652C73.032 14.66 72.924 15.632 72.708 16.568C72.528 17.504 72.024 18.584 71.268 19.736C70.512 20.888 69.504 21.896 68.28 22.76C67.056 23.588 65.328 24.308 63.06 24.884C60.828 25.496 58.2 25.784 55.212 25.784H53.664C50.676 25.784 48.048 25.496 45.816 24.884C43.584 24.308 41.856 23.588 40.632 22.76C39.372 21.932 38.4 20.924 37.644 19.736C36.888 18.584 36.384 17.504 36.168 16.568C35.952 15.632 35.844 14.66 35.844 13.652V12.68C35.844 11.672 35.952 10.7 36.168 9.764C36.384 8.828 36.888 7.784 37.644 6.632C38.4 5.48 39.372 4.472 40.632 3.644C41.856 2.816 43.584 2.132 45.816 1.556C48.048 0.979998 50.676 0.692 53.664 0.692H55.212C58.2 0.692 60.828 0.979998 63.06 1.556C65.328 2.132 67.056 2.816 68.28 3.644C69.504 4.472 70.512 5.48 71.268 6.632C72.024 7.784 72.528 8.828 72.708 9.764C72.924 10.7 73.032 11.672 73.032 12.68ZM64.392 12.896C64.392 12.14 64.248 11.42 63.924 10.736C63.636 10.052 63.132 9.404 62.448 8.72C61.764 8.072 60.756 7.568 59.388 7.172C57.984 6.776 56.364 6.596 54.42 6.596C52.836 6.596 51.468 6.704 50.244 6.992C49.02 7.28 48.084 7.604 47.364 8.036C46.644 8.432 46.068 8.936 45.636 9.512C45.168 10.088 44.88 10.628 44.736 11.168C44.556 11.708 44.484 12.284 44.484 12.896V13.292C44.484 14.048 44.628 14.804 44.952 15.488C45.24 16.208 45.708 16.892 46.392 17.576C47.112 18.26 48.12 18.8 49.488 19.232C50.856 19.628 52.512 19.844 54.42 19.844C56.364 19.844 57.984 19.628 59.388 19.232C60.756 18.836 61.764 18.296 62.448 17.612C63.132 16.964 63.636 16.28 63.924 15.56C64.248 14.876 64.392 14.156 64.392 13.364V12.896ZM86.7539 15.956V20.96H81.5339V15.956H75.7019V12.032H81.5339V7.028H86.7539V12.032H92.6219V15.956H86.7539Z" fill="black"/>
</svg>
