<svg width="28" height="28" viewBox="0 0 28 28" fill="none" xmlns="http://www.w3.org/2000/svg">
<path d="M14 0C17.8632 0 21.3653 1.57049 23.9016 4.09838C26.4379 6.63467 28 10.1284 28 14C28 17.8632 26.4295 21.3653 23.9016 23.9016C21.3653 26.4379 17.8716 28 14 28C10.1368 28 6.63467 26.4295 4.09838 23.9016C1.56209 21.3653 0 17.8716 0 14C0 10.1368 1.57049 6.63467 4.09838 4.09838C6.63467 1.56209 10.1284 0 14 0ZM16.9898 6.34913C17.2418 8.5243 18.4511 9.81764 20.5591 9.95201V12.3959C19.3413 12.5135 18.2663 12.1104 17.0234 11.3629V15.9232C17.0234 21.7265 10.6995 23.5405 8.15477 19.3833C6.5171 16.7127 7.5165 12.0096 12.7654 11.8248V14.4031C12.3623 14.4703 11.9424 14.5711 11.5477 14.6971C10.3803 15.0918 9.72526 15.8308 9.91002 17.1326C10.2627 19.6269 14.8482 20.3659 14.4619 15.4865V6.34913H16.9898ZM23.1794 4.81224C20.8278 2.46071 17.5861 1.0078 14 1.0078C10.4139 1.0078 7.16377 2.46071 4.82064 4.81224C2.46911 7.16377 1.0162 10.4055 1.0162 13.9916C1.0162 17.5777 2.46911 20.8278 4.82064 23.171C7.17217 25.5225 10.4139 26.9754 14 26.9754C17.5861 26.9754 20.8362 25.5225 23.1794 23.171C25.5309 20.8194 26.9838 17.5777 26.9838 13.9916C26.9838 10.4055 25.5309 7.15537 23.1794 4.81224Z" fill="white"/>
</svg>
