<svg width="28" height="28" viewBox="0 0 28 28" fill="none" xmlns="http://www.w3.org/2000/svg">
<path d="M14 0C17.8632 0 21.3653 1.57049 23.9016 4.09838C26.4379 6.63467 28 10.1284 28 14C28 17.8632 26.4295 21.3653 23.9016 23.9016C21.3653 26.4379 17.8716 28 14 28C10.1368 28 6.63467 26.4295 4.09838 23.9016C1.56209 21.3653 0 17.8716 0 14C0 10.1368 1.57049 6.63467 4.09838 4.09838C6.63467 1.56209 10.1284 0 14 0ZM15.5201 9.54889H18.048V6.5171H15.5201C13.5717 6.5171 11.9844 8.10438 11.9844 10.0528V11.5729H9.96041V14.6047H11.9844V22.6923H15.0162V14.6047H17.5441L18.048 11.5729H15.0162V10.0528C15.0162 9.77565 15.2514 9.54889 15.5201 9.54889ZM23.1878 4.82064C20.8362 2.46911 17.5945 1.0162 14.0084 1.0162C10.4223 1.0162 7.17217 2.46911 4.82903 4.82064C2.4775 7.17217 1.0246 10.4139 1.0246 14C1.0246 17.5861 2.4775 20.8362 4.82903 23.1794C7.18056 25.5309 10.4223 26.9838 14.0084 26.9838C17.5945 26.9838 20.8446 25.5309 23.1878 23.1794C25.5393 20.8278 26.9922 17.5861 26.9922 14C26.9922 10.4139 25.5393 7.16377 23.1878 4.82064Z" fill="white"/>
</svg>
