<svg width="28" height="28" viewBox="0 0 28 28" fill="none" xmlns="http://www.w3.org/2000/svg">
<path d="M14 0C17.8632 0 21.3653 1.57049 23.9016 4.09838C26.4379 6.63467 28 10.1284 28 14C28 17.8632 26.4295 21.3653 23.9016 23.9016C21.3653 26.4379 17.8716 28 14 28C10.1368 28 6.63467 26.4295 4.09838 23.9016C1.56209 21.3653 0 17.8716 0 14C0 10.1368 1.57049 6.63467 4.09838 4.09838C6.63467 1.56209 10.1284 0 14 0ZM21.2813 9.4817C20.7439 9.72526 20.1728 9.87642 19.5681 9.95201C20.1896 9.58248 20.6599 8.9946 20.8866 8.29754C20.3071 8.64187 19.6689 8.88542 18.9886 9.0198C18.4427 8.44031 17.6701 8.07918 16.805 8.07918C15.1506 8.07918 13.8152 9.41452 13.8152 11.069C13.8152 11.3041 13.8404 11.5309 13.8908 11.7493C11.4049 11.6233 9.20456 10.4307 7.73485 8.62508C7.47451 9.07858 7.33173 9.59928 7.33173 10.1284C7.33173 11.1614 7.86083 12.0768 8.65867 12.6143C8.17157 12.5975 7.70966 12.4631 7.30654 12.2448V12.2783C7.30654 13.7229 8.33953 14.9322 9.70846 15.2094C9.45651 15.2765 9.19616 15.3185 8.91902 15.3185C8.72585 15.3185 8.54109 15.3017 8.35633 15.2681C8.74265 16.4523 9.84283 17.3173 11.1446 17.3425C10.12 18.1488 8.83503 18.6191 7.43251 18.6191C7.18896 18.6191 6.95381 18.6023 6.71866 18.5771C8.04559 19.4253 9.61608 19.9208 11.3041 19.9208C16.7966 19.9208 19.8116 15.3689 19.8116 11.4133C19.8116 11.2789 19.8116 11.153 19.8032 11.027C20.3911 10.6071 20.895 10.0864 21.2897 9.4817H21.2813ZM23.1794 4.82064C20.8278 2.46911 17.5861 1.0162 14 1.0162C10.4139 1.0162 7.16377 2.46911 4.82064 4.82064C2.46911 7.17217 1.0162 10.4139 1.0162 14C1.0162 17.5861 2.46911 20.8362 4.82064 23.1794C7.17217 25.5309 10.4139 26.9838 14 26.9838C17.5861 26.9838 20.8362 25.5309 23.1794 23.1794C25.5309 20.8278 26.9838 17.5861 26.9838 14C26.9838 10.4139 25.5309 7.16377 23.1794 4.82064Z" fill="white"/>
</svg>
