<svg width="28" height="28" viewBox="0 0 28 28" fill="none" xmlns="http://www.w3.org/2000/svg">
<path fill-rule="evenodd" clip-rule="evenodd" d="M13.958 9.85963C16.3515 9.85963 18.2915 11.7996 18.2915 14.1932C18.2915 16.5867 16.3515 18.5267 13.958 18.5267C11.5645 18.5267 9.62448 16.5867 9.62448 14.1932C9.62448 11.7996 11.5645 9.85963 13.958 9.85963ZM10.7247 6.32394H17.2753C19.7361 6.32394 21.7433 8.31434 21.7433 10.7331V17.2669C21.7433 19.6941 19.7361 21.6761 17.2753 21.6761H10.7247C8.26395 21.6761 6.25675 19.6941 6.25675 17.2669V10.7331C6.25675 8.30594 8.27235 6.32394 10.7247 6.32394ZM18.1488 9.25495C18.5351 9.25495 18.8542 9.56569 18.8542 9.96041C18.8542 10.3467 18.5435 10.6659 18.1488 10.6659C17.7624 10.6659 17.4433 10.3551 17.4433 9.96041C17.4433 9.57409 17.754 9.25495 18.1488 9.25495ZM11.2621 7.57528H16.7379C18.7954 7.57528 20.4751 9.24655 20.4751 11.2957V16.805C20.4751 18.8542 18.7954 20.5255 16.7379 20.5255H11.2621C9.20456 20.5255 7.5249 18.8542 7.5249 16.805V11.2957C7.5249 9.24655 9.20456 7.57528 11.2621 7.57528ZM14 0C17.8632 0 21.3653 1.57049 23.9016 4.09838C26.4379 6.63467 28 10.1284 28 14C28 17.8632 26.4295 21.3653 23.9016 23.9016C21.3653 26.4379 17.8716 28 14 28C10.1368 28 6.63467 26.4295 4.09838 23.9016C1.56209 21.3653 0 17.8716 0 14C0 10.1368 1.57049 6.63467 4.09838 4.09838C6.63467 1.56209 10.1284 0 14 0ZM23.1794 4.81224C20.8278 2.46071 17.5861 1.0078 14 1.0078C10.4139 1.0078 7.16377 2.46071 4.82064 4.81224C2.46911 7.16377 1.0162 10.4055 1.0162 13.9916C1.0162 17.5777 2.46911 20.8278 4.82064 23.171C7.17217 25.5225 10.4139 26.9754 14 26.9754C17.5861 26.9754 20.8362 25.5225 23.1794 23.171C25.5309 20.8194 26.9838 17.5777 26.9838 13.9916C26.9838 10.4055 25.5309 7.15537 23.1794 4.81224ZM13.958 11.3125C15.5369 11.3125 16.8218 12.5975 16.8218 14.1764C16.8218 15.7552 15.5369 17.0402 13.958 17.0402C12.3707 17.0402 11.0942 15.7552 11.0942 14.1764C11.0942 12.5975 12.3791 11.3125 13.958 11.3125Z" fill="white"/>
</svg>
